<svg id="logo" width="35vw" height="100%" viewBox="0 0 88 88" fill="none" xmlns="http://www.w3.org/2000/svg"><path fill-rule="evenodd" clip-rule="evenodd" d="M70.6939 15.5433C70.6625 15.5102 70.6304 15.477 70.5991 15.4442 70.7277 15.1616 70.9694 14.8611 71.2681 14.7093 71.4762 14.7781 71.684 14.8472 71.8922 14.9157 71.9791 15.0066 72.0657 15.0967 72.1524 15.1873 72.1598 15.2275 72.167 15.2682 72.1744 15.3088 71.709 15.6937 71.1601 15.5184 70.6939 15.5433zM70.9534 17C70.9448 17.0079 70.937 17.0157 70.9288 17.0235 70.1892 16.9049 69.3812 16.1535 68.6776 15.96 69.1727 15.5868 69.6168 15.8784 70.1029 16.0142 70.3859 16.3431 70.6696 16.6714 70.9534 17zM71.2239 14.5143C71.0831 14.3019 70.9423 14.0895 70.8015 13.8767 70.5834 13.9016 70.3959 13.8949 70.1699 14.0086 70.114 13.9993 70.0573 13.99 70.0017 13.9804 70.1069 13.7659 70.403 13.6169 70.5456 13.4119 70.5071 13.3061 70.4697 13.2006 70.4315 13.0947 69.6246 13.1763 68.5832 13.8853 69.0404 14.8066 69.1039 14.8561 69.1673 14.906 69.2311 14.9563 69.4771 14.8077 69.6168 14.4709 69.8727 14.3404 70.0434 14.2538 70.263 14.2666 70.5064 14.1123 70.5306 14.1212 70.5545 14.1294 70.5788 14.1383 70.4373 14.3365 70.2958 14.535 70.155 14.7339 70.0944 14.9748 70.2305 15.2272 70.1628 15.4834 70.0887 15.4899 67.953 14.7531 67.7858 14.6836 67.5442 14.6779 67.3022 14.6729 67.0605 14.6676 67.053 14.6598 67.0445 14.6512 67.037 14.6434 67.2466 14.493 67.3874 14.4455 67.5531 14.2431 67.5452 14.2189 67.5381 14.1943 67.5306 14.17 66.8969 14.1597 66.2985 14.5471 65.6573 14.6865 65.3329 15.0522 65.2902 15.3865 65.3679 15.7686 65.4317 15.8181 65.4951 15.868 65.5586 15.9179 65.8615 15.6902 66.1648 15.4628 66.4681 15.2357 67.037 14.9281 68.0368 15.1039 68.5892 15.5711 68.581 15.579 68.5728 15.5865 68.5643 15.595 68.118 15.7037 67.7962 15.585 67.3236 15.9311 67.3057 16.027 67.2872 16.1236 67.2694 16.2202 67.2901 16.3948 67.2544 16.4412 67.4294 16.6347 68.1016 16.428 68.643 16.2957 69.2896 16.7466 69.2814 16.7544 69.2732 16.763 69.265 16.7701 69.1844 16.7687 69.1035 16.7669 69.0233 16.7651 68.9442 16.6992 68.8651 16.6329 68.7856 16.5666 68.6152 16.7505 68.6395 16.7452 68.4441 16.7049 68.4192 16.7281 68.3946 16.752 68.3697 16.7758 68.4035 16.9138 68.4263 16.9851 68.5803 17.1429 68.5382 17.2142 68.4958 17.2866 68.4545 17.3582 67.722 17.0449 67.1318 16.7021 66.3762 16.1286 66.3195 16.1353 66.2632 16.1425 66.2069 16.1492 66.1655 16.1888 66.1242 16.228 66.0836 16.2672 66.3209 18.0447 67.0723 17.0417 68.0539 17.978 67.7338 18.2536 67.4134 18.5291 67.0929 18.8039 66.6364 18.7593 65.8854 17.9919 65.4388 18.116 65.4067 18.1317 65.3743 18.147 65.3411 18.1627 65.4944 18.6107 65.9025 19.1008 66.1096 19.5573 66.8595 19.82 67.6796 18.9921 68.4345 18.2764 68.6316 18.4984 68.8284 18.7205 69.0255 18.9418 69.3958 18.7522 69.4168 18.4646 69.4518 18.2012 69.3149 17.9681 69.1385 17.8055 68.9089 17.5853 68.967 17.514 69.0251 17.4423 69.0832 17.3714 69.3773 17.3782 69.7102 17.4295 70.0046 17.2456 70.3289 17.5044 70.618 17.8779 70.8553 18.183 71.0756 18.1356 71.4185 17.9862 71.5664 17.7382 71.7193 17.3197 71.2249 16.6685 70.7994 16.2469 70.8001 16.2309 70.8001 16.2145 70.8008 16.1988 70.8172 16.1827 70.834 16.1671 70.8496 16.151 71.4449 16.1475 71.7688 16.3895 72.4015 15.9903 72.6877 14.6266 71.9178 14.9666 71.2239 14.5143z" fill="#025a92"/><path fill-rule="evenodd" clip-rule="evenodd" d="M61.7844 7.3877C62.4573 8.04744 61.9661 8.39067 61.9437 9.15876 61.9298 9.61569 62.4947 9.60357 62.0759 10.4059 61.4568 10.7559 60.5789 10.3079 60.0496 10.8108 60.9446 11.3536 61.5413 12.6474 61.2237 13.4693 60.9992 14.0503 60.0304 14.5771 59.7991 14.0474 59.237 12.945 61.0683 12.3063 59.8853 10.9106 59.7674 10.9273 59.7663 10.9045 59.649 10.9655 59.0517 11.2984 58.8164 12.0957 58.1963 12.235 57.724 11.9346 57.7044 11.653 57.5729 11.2877 57.811 10.9259 58.8068 10.1239 58.8204 9.94075 58.8439 9.62674 58.1649 9.14165 58.1196 8.79307 58.1346 8.76919 58.1499 8.74531 58.1649 8.72036 58.6938 8.71252 59.3635 9.05112 59.9131 9.00336 60.5846 8.94491 61.2077 7.83964 61.7844 7.3877z" fill="#025a92"/><path fill-rule="evenodd" clip-rule="evenodd" d="M48.9386 8.07703C49.2205 7.75483 49.9558 7.27045 50.0367 6.93649 50.2477 6.98888 50.4587 7.04127 50.6693 7.09367 50.5214 7.52137 50.057 7.90845 50.1711 8.38463 50.2089 8.51365 50.2509 8.52791 50.3625 8.60917 50.5663 8.4944 50.7905 8.35397 51.086 8.40031 50.9563 8.73392 50.8258 9.06646 50.6957 9.39972 50.041 8.93601 49.9782 8.31691 48.9386 8.07703zM47.4412 9.68485C47.4384 9.6959 47.4359 9.70695 47.433 9.71764 47.3136 9.6763 47.1942 9.63424 47.0748 9.59361 47.0891 9.4906 47.1026 9.38795 47.1165 9.28495 47.2188 9.20475 47.3215 9.1242 47.4245 9.04401 47.4658 9.06575 47.5075 9.0882 47.5492 9.10995 47.5132 9.3017 47.4772 9.4931 47.4412 9.68485zM50.9459 9.67416C51.2239 9.33378 51.4132 8.86829 51.6192 8.39211 51.487 8.10377 51.2763 7.89383 50.8946 7.75162 51.1363 7.14179 51.7803 6.89728 52.2005 6.48561 52.228 6.18907 52.0516 6.05434 52.0505 5.81126 52.1339 5.52541 52.2169 5.23956 52.2996 4.95371 52.2775 4.71277 52.2547 4.47076 52.233 4.22982 52.1132 4.10543 52.0344 4.01668 51.8081 3.94718 51.7582 3.95787 51.7083 3.96928 51.6581 3.98033 51.5059 4.35671 51.6509 4.64755 51.6506 5.00397 51.6488 6.116 50.7029 6.25037 49.8446 6.14594 49.7523 6.47456 49.7298 6.67131 49.804 6.87803 49.5484 6.95573 49.2932 7.03343 49.038 7.11149 49.1257 6.83847 49.2476 6.79142 49.5288 6.84524 49.7213 6.4988 49.4953 6.33413 49.5202 6.02904 49.5855 5.21996 50.8055 4.49963 49.2943 3.95644 49.28 3.96536 49.2668 3.9732 49.2522 3.98175 49.1517 4.24835 49.2736 4.39948 49.2529 4.68925 49.0897 5.15545 48.9264 5.62129 48.7629 6.08785 48.0076 6.28352 46.8767 6.2322 46.166 6.57222 46.1464 6.60288 46.1271 6.63317 46.1079 6.66382 46.1724 7.02381 47.139 7.45009 47.6565 7.40375 47.8672 7.31465 48.0782 7.22554 48.2888 7.13715 48.2999 7.13965 48.3109 7.1425 48.3223 7.14535 47.9481 8.5828 46.8881 8.37465 46.3342 9.44356 46.3898 9.59931 46.445 9.75471 46.5006 9.91011 46.7284 9.89621 46.9558 9.88195 47.1835 9.8677 47.5642 10.047 47.5924 10.4016 48.0746 10.5495 48.2945 10.3122 48.2564 9.78822 48.2902 9.40079 48.3326 8.91427 48.5747 8.58208 48.7386 8.31049 49.6603 8.62307 49.8061 9.15129 50.3628 9.59967 50.0299 10.5638 48.6663 9.57151 48.2407 10.3086 49.5505 10.9174 49.311 10.5007 50.3717 10.274 50.4548 10.2238 50.5378 10.1742 50.6212 10.1236 51.2567 10.9387 51.2029 11.7353 52.912 11.7207 52.9476 11.6712 52.9836 11.6206 53.0196 11.571 52.6621 10.7231 51.405 10.4579 50.9459 9.67416z" fill="#025a92"/><path fill-rule="evenodd" clip-rule="evenodd" d="M38.458 6.82741C38.1476 6.95822 38.0599 7.17955 37.809 7.35099 37.8243 6.8185 38.1248 6.76147 38.1608 6.47455 38.1939 6.20724 37.9234 5.96344 38.0039 5.65585 38.0674 5.54286 38.1725 5.54857 38.2367 5.4363 38.3572 5.19927 37.9066 4.51637 37.6739 4.43796 37.609 4.43475 37.5445 4.43119 37.4793 4.42798 36.646 5.53395 35.5845 5.69042 34.9879 7.15425 35.8419 6.74329 36.152 5.84368 37.3296 5.66726 37.2719 6.54833 36.07 7.29967 35.3664 7.65823 34.9932 7.84891 34.8493 7.73094 34.6714 8.05849 34.7092 8.30513 34.789 8.41598 34.9758 8.47479 35.5175 8.63874 36.6285 8.20177 36.7401 7.85747 36.7789 7.82076 36.8178 7.7844 36.8566 7.74804 36.8673 7.74662 36.8776 7.74555 36.8883 7.74413 36.7386 8.31868 36.5889 8.89358 36.4392 9.46778 36.5615 9.63423 36.6969 9.6991 36.8634 9.80602 36.9058 9.80139 36.9482 9.79676 36.9906 9.79212 37.1218 9.53051 37.2533 9.2689 37.3848 9.00728L37.4447 8.96879C37.4828 9.2108 37.5206 9.45317 37.5588 9.69553 37.6493 9.73902 37.7402 9.78214 37.8311 9.82563 37.9166 9.82705 38.0029 9.82777 38.0884 9.82919 37.9936 9.36798 37.8988 8.90642 37.804 8.44556 38.0221 7.90558 38.2399 7.36632 38.458 6.82741zm2.814-.15683C41.2124 6.22719 40.8924 6.10708 40.4126 6.18834 40.285 5.20034 40.6721 3.02938 39.2397 3.48952 39.1409 3.86269 40.1336 5.84761 39.8413 6.54227c0 0-.9574.68825-1.0119.72568C38.9431 6.73367 39.4011 6.56009 39.569 6.12241 39.6955 5.76349 38.9976 5.85438 38.8373 5.62627 38.9474 5.34184 39.1723 5.10447 39.507 5.00396 39.512 4.94942 39.5166 4.89525 39.5209 4.84107 39.5066 4.81078 39.4924 4.78012 39.4785 4.74947 39.096 4.56627 38.7143 4.59229 38.2923 4.78654 38.3422 4.99291 38.3686 5.03425 38.5785 5.04423 38.5696 5.34541 38.5607 5.64658 38.5518 5.94776 38.684 6.07251 38.8159 6.1969 38.9477 6.32165 38.7403 6.71228 37.8108 7.63506 38.2663 8.2645 38.3457 8.39424 38.4003 8.41313 38.5453 8.45839 39.0251 7.99326 39.2247 7.47645 39.9094 7.14641 39.9204 7.14534 39.9308 7.14391 39.9414 7.14284 40.0787 8.41562 39.9304 10.469 40.5769 11.3497 40.6411 11.4056 40.6176 11.3771 40.7708 11.3607 40.7249 9.98138 40.6397 8.40814 40.4529 6.82741 40.7359 6.8021 41.0424 6.7964 41.2082 6.67771 41.2292 6.67522 41.2502 6.67308 41.272 6.67058z" fill="#025a92"/><path fill-rule="evenodd" clip-rule="evenodd" d="M28.6453 10.6978C28.5989 10.7039 28.5522 10.7103 28.5063 10.716 28.4706 10.7185 28.4346 10.7199 28.399 10.7217 28.3886 10.665 28.3783 10.6084 28.368 10.5517 28.5626 10.3043 28.7561 10.0566 28.9504 9.8089 29.0138 9.78395 29.0769 9.759 29.1396 9.7337 29.1439 9.74439 29.1482 9.75473 29.1525 9.76577 28.9832 10.0762 28.8142 10.387 28.6453 10.6978zm1.3159.6473C29.9302 11.2966 29.8992 11.2481 29.8678 11.1993L30.1266 11.0239C30.087 10.8935 30.0478 10.763 30.0082 10.6322 29.896 10.6034 29.7847 10.6166 29.6422 10.6312 29.6297 10.5998 29.6172 10.5681 29.6044 10.5364 29.7776 10.1842 30.2599 9.83136 30.3835 9.45996 30.3736 9.40329 30.3629 9.34627 30.3525 9.28959 29.5288 8.51759 28.7009 9.39046 28.0351 9.98925L28.0037 10.0017C28.0604 9.24789 29.3296 8.08489 30.3564 8.00897 30.4477 7.85642 30.4537 7.72027 30.4584 7.52994 29.5156 6.85488 29.6657 7.60087 28.8181 7.63188 28.4196 7.52068 27.8697 6.71124 27.4145 6.58079 27.3472 6.59505 27.2798 6.60966 27.2125 6.62392 26.9163 7.04307 27.731 7.84003 27.5853 8.48658 26.7673 9.02085 26.5484 9.56547 25.9971 10.1029 25.7711 10.3232 25.3744 10.3674 25.1188 10.561 25.1021 10.6408 25.085 10.7206 25.0675 10.8005c.9438 1.9785 2.0555-1.47776 3.0905-1.88337C28.173 8.92319 28.1876 8.92997 28.2026 8.93638 28.0197 9.56475 27.5304 10.0858 27.6854 10.8586 27.7335 11.1205 28.3751 11.5935 28.6168 11.7318 28.3359 12.2967 27.9128 12.7269 28.2012 13.5417 28.4806 13.6622 28.76 13.7826 29.0391 13.9035 29.1507 13.8333 29.1785 13.8101 29.2227 13.721 29.3681 13.4957 29.0826 12.8132 29.1254 12.5537 29.1525 12.5309 29.1803 12.5074 29.2073 12.4849 29.361 12.6129 29.3884 12.9019 29.5335 13.1226 29.7053 13.3835 29.9676 13.5171 30.1882 13.6675 30.2196 13.655 30.2513 13.6422 30.283 13.6297 30.3682 13.0734 29.794 12.3035 29.7334 11.6912 29.8346 11.6391 29.9359 11.5867 30.0367 11.5343 30.0478 11.5301 30.0581 11.5261 30.0685 11.5222 30.6697 11.956 30.3212 12.5566 31.2129 12.7494 31.3562 12.6193 31.4998 12.4892 31.6431 12.3595 31.3598 11.6013 30.6598 11.1202 29.9612 11.3451z" fill="#025a92"/><path fill-rule="evenodd" clip-rule="evenodd" d="M19.2923 12.3434C20.4154 11.6028 20.5145 12.6895 21.3368 13.0855 21.6059 12.9593 21.8497 12.9422 22.1059 13.0324 22.1295 13.0595 22.1533 13.0865 22.1769 13.1136 22.1558 13.9231 21.8418 14.5283 22.8002 15.347 23.3965 14.7361 23.7654 14.5814 24.3699 14.7325 24.3967 14.8533 24.4227 14.9742 24.449 15.0946 24.104 15.5744 23.7587 16.0545 23.4136 16.5339 23.0355 17.143 22.9585 17.802 22.6334 18.3719 22.5782 18.3088 22.5226 18.2461 22.467 18.1827 22.298 17.5137 22.6441 16.9694 22.8405 16.3189 22.3982 16.1193 22.0101 15.7109 21.5606 15.1919 21.2598 15.3537 21.0513 15.2956 20.7216 15.5462 20.2205 16.8357 20.9896 18.2532 20.7473 19.5531 20.461 19.7883 20.2836 19.7384 20.0194 19.762 19.3982 19.0409 19.5761 18.404 19.0546 17.6851 18.706 17.9043 18.2562 17.9389 17.9208 17.8683 17.723 17.6548 17.7152 17.5782 17.6959 17.3946 17.887 17.1943 18.0784 16.994 18.2698 16.7933 17.8403 15.9344 16.9492 15.9286 16.6498 15.389 16.6598 15.3648 16.6698 15.3395 16.6801 15.3149 17.219 15.0522 18.0053 14.7532 18.505 15.0993 18.6996 15.3751 18.8953 15.6514 19.0903 15.9276 19.2788 16.0331 19.4677 16.1382 19.6566 16.2441 19.7318 16.5292 19.8074 16.8147 19.8829 17.1006 20.1613 16.6247 20.0679 16.0359 20.1862 15.5377 20.3776 15.0658 20.5694 14.5928 20.7612 14.1202 20.3741 13.526 19.4306 12.9572 19.2923 12.3434z" fill="#025a92"/><path fill-rule="evenodd" clip-rule="evenodd" d="M0 44.0001C0 19.7153 19.7155.0 44.0003.0 68.2854.0 88.0007 19.7153 88.0007 44.0001 88.0007 68.2846 68.2854 88 44.0003 88 19.7156 88 0 68.2846.0 44.0001zM44.0003 2.12178c-23.1129.0-41.87852 18.76542-41.87852 41.87832.0 23.1127 18.76562 41.8781 41.87852 41.8781 23.1133.0 41.8786-18.7654 41.8786-41.8781.0-23.1129-18.7653-41.87832-41.8786-41.87832z" fill="#025a92"/><path fill-rule="evenodd" clip-rule="evenodd" d="M11.2154 44.0001c0-18.0944 14.6903-32.7842 32.7849-32.7842 18.0947.0 32.7849 14.6898 32.7849 32.7842.0 18.0944-14.6902 32.7844-32.7849 32.7844-18.0946.0-32.7849-14.69-32.7849-32.7844zM44.0003 12.2263c-17.5366.0-31.7744 14.2374-31.7744 31.7738.0 17.5363 14.2378 31.7739 31.7744 31.7739 17.5367.0 31.7744-14.2376 31.7744-31.7739.0-17.5364-14.2377-31.7738-31.7744-31.7738z" fill="#025a92"/><path fill-rule="evenodd" clip-rule="evenodd" d="M35.1307 79.3259 34.8993 80.1996 34.0247 79.9678 34.2564 79.0942 35.1307 79.3259z" fill="#025a92"/><path fill-rule="evenodd" clip-rule="evenodd" d="M37.9887 82.7161 37.098 82.559 37.6907 79.2018C37.3115 79.4488 36.8884 79.6057 36.4211 79.6737L36.5637 78.8654C36.8093 78.8308 37.088 78.7306 37.3981 78.5667 37.7078 78.4024 37.9384 78.1878 38.0903 77.9226L38.8131 78.0499 37.9887 82.7161z" fill="#025a92"/><path fill-rule="evenodd" clip-rule="evenodd" d="M42.0928 80.0625C42.1124 79.7717 42.061 79.5411 41.9381 79.3714 41.8151 79.2017 41.6661 79.1105 41.4904 79.0987 41.3236 79.0873 41.1803 79.1436 41.0609 79.268 40.9422 79.3921 40.8724 79.6038 40.8517 79.9039 40.831 80.2076 40.8756 80.435 40.9864 80.5857 41.0962 80.7365 41.2413 80.8178 41.4213 80.8295 41.5945 80.8416 41.7452 80.7828 41.8732 80.6542 42.0015 80.5255 42.0749 80.328 42.0928 80.0625zm-2.1771 1.8327L40.7961 81.8585C40.8054 82.0374 40.8517 82.1729 40.9358 82.2648 41.0203 82.3564 41.1358 82.4074 41.2837 82.4174 41.4697 82.4302 41.634 82.3554 41.7766 82.1932 41.9188 82.0303 42.0265 81.681 42.0995 81.1435 41.855 81.3916 41.562 81.5042 41.222 81.4807 40.8513 81.4554 40.5416 81.2907 40.2921 80.9867 40.0433 80.6827 39.9343 80.3017 39.9653 79.8433 39.9981 79.3657 40.1663 78.9907 40.47 78.7181 40.7733 78.4451 41.1443 78.3235 41.5834 78.3535 42.061 78.3859 42.4399 78.5976 42.7208 78.9875 43.0016 79.3775 43.1136 79.9958 43.0562 80.8416 42.9977 81.702 42.7953 82.3122 42.4503 82.6712 42.1056 83.0304 41.6768 83.1926 41.1654 83.158 40.7972 83.1327 40.506 83.0144 40.2928 82.803 40.0793 82.5917 39.9535 82.2891 39.9157 81.8952z" fill="#025a92"/><path fill-rule="evenodd" clip-rule="evenodd" d="M43.9429 81.9964 44.8396 81.8684C44.8731 82.0709 44.9558 82.2291 45.087 82.3435 45.2178 82.4572 45.3664 82.5111 45.5311 82.505 45.72 82.4975 45.8768 82.4148 46.0012 82.2562 46.1263 82.098 46.183 81.8645 46.1709 81.5558 46.1595 81.2661 46.0864 81.0519 45.951 80.9118 45.8152 80.7717 45.6437 80.7061 45.4356 80.714 45.1765 80.7247 44.9483 80.848 44.7516 81.0854L44.0138 81.008 44.3816 78.5359 46.7714 78.4429 46.8042 79.289 45.0995 79.3553 44.9893 80.1615C45.1868 80.0528 45.3907 79.9944 45.601 79.9862 46.0016 79.9705 46.3473 80.1034 46.6374 80.3843 46.9276 80.6652 47.0815 81.0383 47.0997 81.5031 47.115 81.8912 47.0156 82.242 46.8025 82.5553 46.5116 82.9833 46.0946 83.2075 45.55 83.2289 45.1144 83.246 44.7548 83.143 44.4715 82.9199 44.1877 82.6968 44.0113 82.3892 43.9429 81.9964z" fill="#025a92"/><path fill-rule="evenodd" clip-rule="evenodd" d="M51.0304 81.7172 51.1527 82.5484 48.0158 83.0082C48.003 82.6892 48.0618 82.3766 48.1901 82.0701 48.3191 81.7639 48.5996 81.3416 49.0327 80.8034 49.3809 80.3682 49.5905 80.077 49.6625 79.9302 49.7587 79.7273 49.7936 79.5359 49.7669 79.3552 49.7377 79.1556 49.6614 79.0102 49.5381 78.9186 49.4155 78.8274 49.2594 78.7953 49.0705 78.8227 48.8837 78.8502 48.7433 78.9286 48.6495 79.0569 48.5561 79.1859 48.5194 79.3816 48.5408 79.6457L47.6359 79.6874C47.6166 79.1867 47.7317 78.8088 47.9805 78.5533 48.2293 78.2977 48.5636 78.1391 48.9842 78.0778 49.4447 78.0101 49.8254 78.0814 50.1248 78.291 50.4241 78.5009 50.6016 78.7903 50.6555 79.1596 50.6861 79.3699 50.6783 79.5759 50.6305 79.7769 50.5831 79.9779 50.4929 80.1946 50.3596 80.4263 50.2716 80.5806 50.1052 80.8073 49.8614 81.1078 49.6165 81.4082 49.4632 81.6064 49.4002 81.7026 49.3374 81.7985 49.2882 81.8901 49.2533 81.9774L51.0304 81.7172z" fill="#025a92"/><path fill-rule="evenodd" clip-rule="evenodd" d="M52.7641 79.36 52.9715 80.2403 52.0908 80.4478 51.8834 79.5675 52.7641 79.36z" fill="#025a92"/><path fill-rule="evenodd" clip-rule="evenodd" d="M28.5946 42.4229C28.401 42.4229 28.3048 42.3152 28.3048 42.1007 28.3429 41.8505 28.4588 41.7243 28.6523 41.7243 29.6564 41.6886 30.4483 41.8141 31.0275 42.1007 31.529 42.3152 31.7225 42.7454 31.6067 43.3906V43.6593C32.224 43.5517 32.6684 43.3727 32.939 43.1218 33.3635 42.6563 33.2665 42.1727 32.6492 41.6705 32.147 41.2406 31.4709 41.0253 30.6219 41.0253 30.2355 40.9541 30.0228 40.7566 29.9846 40.4344 29.9846 40.2555 30.1197 40.1657 30.3902 40.1657 31.4328 40.2377 32.2821 40.5064 32.939 40.9719 33.711 41.6166 34.0396 42.2439 33.9238 42.8531 33.614 43.5342 32.919 44.0004 31.8384 44.2506 31.7607 44.2866 31.6648 44.3041 31.549 44.3041V45.003C31.8965 45.039 32.321 45.2539 32.8231 45.6481 33.4405 46.078 33.9619 46.6515 34.3871 47.3679 34.4252 47.5115 34.3671 47.6191 34.2135 47.6904 34.0973 47.7624 33.9819 47.7442 33.866 47.6366 33.6721 47.3504 33.3057 46.9566 32.7654 46.4544 32.3398 46.0965 31.9342 45.8991 31.549 45.8627v1.183C31.8184 47.1529 32.07 47.3326 32.3017 47.5831 32.7654 48.049 33.1507 48.6228 33.4604 49.3032 33.8461 49.948 34.0196 50.504 33.9819 50.9695 33.9819 51.1128 33.9238 51.2019 33.8079 51.2379 33.7302 51.2732 33.6343 51.2197 33.5182 51.0768 33.4793 50.9695 33.3827 50.7542 33.2287 50.4317 32.919 49.7865 32.6492 49.2676 32.4179 48.873 32.07 48.3356 31.7803 48.0315 31.549 47.9592V49.3032C31.549 50.6291 31.5098 51.6317 31.4328 52.3129 31.3939 52.4558 31.3173 52.5456 31.2011 52.5816 31.0853 52.6172 30.9887 52.5631 30.9117 52.4205 30.8728 52.2052 30.8536 51.2019 30.8536 49.4102V47.9057c-.3094.0719999999999956-.5792.2331-.8109.4833C29.6564 48.9269 29.3855 49.4291 29.2319 49.8942 29.0772 50.2887 28.864 50.6651 28.5946 51.023 28.4787 51.0953 28.3629 51.1128 28.2467 51.0768 28.169 51.0415 28.1501 50.9695 28.189 50.8619 28.189 50.8266 28.2082 50.7542 28.2467 50.6466 28.3629 50.1815 28.4588 49.8407 28.5365 49.6254c.192799999999998-.4298.5214-1.0026.9848-1.7197C29.9458 47.3679 30.3703 47.0638 30.7958 46.9915V45.8627C30.4861 45.8991 30.1197 46.0602 29.6952 46.3467 29.5794 46.4191 29.3277 46.6693 28.9421 47.0991 28.6716 47.4217 28.4787 47.6366 28.3629 47.7442 28.2467 47.8879 28.1501 47.9413 28.0731 47.9057 27.9954 47.8341 27.9762 47.709 28.0154 47.5293 28.401 46.7056 28.9032 46.0427 29.5213 45.5405 29.9069 45.1826 30.3514 45.003 30.8536 45.003V44.4117C29.4635 44.5553 28.4395 44.5015 27.7837 44.2506 27.5898 44.143 27.5128 43.9819 27.5517 43.7669 27.6287 43.624 27.7837 43.5702 28.0154 43.6055 28.5946 43.7491 29.5213 43.7851 30.7958 43.7131H30.8536C30.8917 43.104 30.7566 42.764 30.4483 42.6916 29.8299 42.4767 29.2115 42.3876 28.5946 42.4229z" fill="#025a92"/><path fill-rule="evenodd" clip-rule="evenodd" d="M40.8057 44.143C40.8057 44.0353 40.8246 43.8928 40.8638 43.7131H39.6474V44.4652h.695C40.651 44.3583 40.8057 44.2506 40.8057 44.143zM40.5163 42.4767C40.4383 42.4767 40.3035 42.4589 40.1107 42.4229H39.6474V43.1753h1.2164V43.0142C40.8638 42.6916 40.7476 42.5131 40.5163 42.4767zM40.5741 48.6043C40.8057 48.5327 40.9405 48.3716 40.9797 48.1203H40.3424C39.8787 48.0854 39.5116 48.0668 39.2417 48.0668 39.1259 48.0668 38.9712 48.0854 38.7784 48.1203 38.3528 48.1566 38.0634 48.1926 37.9094 48.2279 37.9864 48.4429 38.1411 48.5505 38.3728 48.5505 39.029 48.6581 39.7632 48.6767 40.5741 48.6043zm-2.2013-2.5801C38.0253 46.0962 37.8314 46.2929 37.7936 46.6155 38.257 46.5438 38.7203 46.5082 39.1837 46.5082 39.6851 46.4726 40.3035 46.4904 41.0374 46.5617 40.9597 46.3115 40.8246 46.1503 40.6321 46.078 39.8979 45.9351 39.1448 45.9169 38.3728 46.0242zm-.4634-1.8812C38.0253 44.3583 38.2758 44.4652 38.6626 44.4652H38.952C38.9901 44.215 39.0101 43.9819 39.0101 43.7666H37.7936C37.7936 43.9106 37.8314 44.0353 37.9094 44.143zm3.128 3.4398C41.0374 47.5115 41.0566 47.4217 41.0951 47.3141V47.153C40.5541 47.0457 39.9949 47.01 39.4157 47.0457 38.8743 47.0817 38.3147 47.1355 37.7355 47.2068L37.7936 47.6366C38.7203 47.5293 39.801 47.5115 41.0374 47.5828zm-3.3596-4.6221V43.1753h1.3323C39.0101 42.8887 38.9901 42.6378 38.952 42.4229H38.5467C38.3528 42.4589 38.1992 42.4767 38.083 42.4767 37.8125 42.5844 37.6778 42.7455 37.6778 42.9607zM38.0253 45.5405C39.029 45.3616 40.0138 45.3616 40.9797 45.5405 41.3272 45.6125 41.52 45.8278 41.5588 46.1853 41.6747 46.9028 41.6358 47.6552 41.443 48.4429 41.3649 48.909 40.9986 49.1778 40.3424 49.2491 40.4194 50.1091 40.651 51.0052 41.0374 51.9365 41.1532 52.1154 41.1333 52.2943 40.9797 52.4743 40.9016 52.5456 40.8439 52.5816 40.8057 52.5816 40.728 52.5816 40.6699 52.5278 40.6321 52.4205 40.2066 51.5605 39.8787 50.504 39.6474 49.2491H39.2417C39.164 50.539 38.8361 51.5605 38.257 52.3129 38.1023 52.4558 37.9864 52.5096 37.9094 52.4743 37.8314 52.402 37.8125 52.2769 37.8513 52.098 37.8513 52.0256 37.9094 51.8645 38.0253 51.6143 38.257 51.1481 38.392 50.8077 38.4305 50.5931 38.5075 50.3429 38.5845 49.9302 38.6626 49.3567V49.2491C38.16 49.2141 37.7936 48.9989 37.5616 48.6043 37.2141 48.1028 37.0783 47.4039 37.1563 46.5082 37.2333 45.9351 37.5231 45.6125 38.0253 45.5405zm-.2898-3.6013C38.5075 41.7963 39.5116 41.7778 40.7476 41.8854 41.2113 41.9578 41.443 42.1367 41.443 42.4229 41.443 42.4952 41.4619 42.5665 41.5007 42.6378 41.5389 42.7818 41.5588 42.9607 41.5588 43.1753 41.7125 43.2117 41.8675 43.2295 42.0222 43.2295 42.0222 43.1578 42.0411 43.0327 42.0803 42.8531 42.0803 42.6742 42.0992 42.5487 42.138 42.4767 42.215 42.0465 41.9833 41.7603 41.443 41.6167 40.7476 41.4017 39.9749 41.2941 39.1259 41.2941 38.1212 41.2941 37.3103 41.4377 36.693 41.7243 36.5771 41.8319 36.5379 41.993 36.5771 42.208 36.5771 42.3516 36.596 42.5305 36.6349 42.7455V43.2295h.4056C37.0405 42.9789 37.0594 42.7455 37.0986 42.5305 37.1364 42.208 37.3491 42.0116 37.7355 41.9392zm1.6802-1.935C39.6082 40.1479 39.7051 40.3453 39.7051 40.5955 39.7432 40.6675 39.8209 40.7032 39.9368 40.7032 40.6699 40.7752 41.4042 40.9177 42.138 41.133 42.5237 41.2766 42.7365 41.4199 42.7753 41.5632 42.8911 41.7428 42.91 41.9578 42.8331 42.208V42.3153C42.5625 43.3189 42.4855 44.7165 42.6014 46.5082 42.6784 47.6192 42.9293 49.2854 43.3545 51.5067 43.3926 51.7569 43.3345 51.918 43.1809 51.9907 43.0259 52.0256 42.91 51.9365 42.8331 51.7219 42.1762 49.2854 41.9064 46.6515 42.0222 43.8204 41.9833 43.8204 41.9064 43.803 41.7905 43.7666H41.5588C41.52 44.0892 41.423 44.3939 41.2691 44.6805 41.1144 44.9674 40.8246 45.0928 40.4001 45.0565H38.4305C38.0442 45.1292 37.7544 45.003 37.5616 44.6805 37.368 44.4303 37.2333 44.143 37.1563 43.8204 37.0783 43.8204 36.9824 43.8386 36.8666 43.8742H36.693C36.7308 45.1641 36.693 46.5264 36.5771 47.9592 36.5379 48.3177 36.4991 48.909 36.4613 49.7331 36.4613 49.5178 36.4413 49.7153 36.4032 50.3244 36.3255 50.9339 36.2296 51.4343 36.1134 51.8292 35.9976 52.1154 35.8618 52.2591 35.7082 52.2591 35.5924 52.2231 35.5535 52.0441 35.5923 51.7219 35.8618 49.8229 36.0357 48.2465 36.1134 46.9915 36.2296 45.594 36.2093 44.3583 36.0557 43.2829 35.978 42.8531 35.8821 42.4952 35.7659 42.208 35.5343 41.7065 35.6501 41.3843 36.1134 41.2403 36.8088 40.9541 37.5808 40.793 38.4305 40.7566 38.7784 40.6853 38.952 40.4879 38.952 40.1657 38.9131 40.0224 38.952 39.9326 39.0682 39.8966 39.1837 39.8613 39.2995 39.8966 39.4157 40.0042z" fill="#025a92"/><path fill-rule="evenodd" clip-rule="evenodd" d="M47.1666 44.4117h1.1583C48.7106 44.3764 48.9622 44.143 49.078 43.7131V43.6055C47.842 43.6055 46.8768 43.624 46.1818 43.6593 46.1818 43.7316 46.2007 43.8029 46.2395 43.8742 46.3935 44.2328 46.7032 44.4117 47.1666 44.4117zm-1.1584-2.0423C46.0082 42.4414 46.0271 42.5487 46.0659 42.6916V42.9607H49.078V42.3152C47.9967 42.2803 46.973 42.2978 46.0082 42.3694zM46.0082 41.6166V41.7243C46.7032 41.6886 47.7258 41.6705 49.078 41.6705V41.3479C49.0392 41.0617 48.8464 40.8642 48.4989 40.7566 47.9197 40.614 47.3401 40.5955 46.761 40.7031 46.2199 40.8828 45.969 41.1868 46.0082 41.6166zM46.4712 40.1118C47.3594 39.9329 48.2091 39.9689 49.0203 40.2191 49.3286 40.2191 49.5418 40.5602 49.6572 41.2406 49.8112 42.1727 49.7535 43.0865 49.4837 43.9819 49.3286 44.627 48.9622 44.9677 48.383 45.003 48.4212 45.4692 48.4408 45.9889 48.4408 46.5616H49.1939C49.5795 46.6336 49.8693 46.3649 50.0628 45.7558c.115899999999996-.323.174-1.1106.174-2.3653C50.2368 43.0327 50.2557 42.8174 50.2945 42.7454 50.3327 42.6741 50.3904 42.6203 50.4685 42.5843 50.5451 42.5843 50.6032 42.6378 50.642 42.7454 50.719 42.8891 50.7579 43.1753 50.7579 43.6055 50.7579 44.2866 50.719 44.9677 50.642 45.6481 50.4485 46.6515 49.9659 47.1529 49.1939 47.1529H48.4408V47.6904C49.3678 47.6904 49.947 48.1744 50.1787 49.1418 50.4104 49.8942 50.6032 50.8077 50.7579 51.883 50.7579 52.2768 50.7001 52.4558 50.5843 52.4205 50.4296 52.4918 50.3138 52.3667 50.2368 52.0441 50.0817 51.1481 49.8693 50.2353 49.5995 49.3032 49.4837 48.6941 49.0973 48.4075 48.4408 48.4432 48.5178 49.6254 48.5759 50.88 48.6147 52.2052 48.6147 52.5278 48.537 52.7067 48.383 52.7431 48.2283 52.7783 48.1314 52.6354 48.0933 52.3129 47.9774 51.8467 47.8997 50.4502 47.8616 48.1203 47.8616 46.6878 47.842 45.6667 47.8038 45.0568h-.4056C47.2043 47.8166 47.1085 50.0378 47.1085 51.7219 47.1085 52.2594 46.9926 52.5631 46.761 52.6354 46.5674 52.6354 46.4712 52.4558 46.4712 52.0979V51.6677C46.5485 50.4142 46.6063 49.3389 46.6451 48.4432 45.7562 48.3715 45.274 48.6581 45.197 49.3032 44.8872 50.0916 44.6559 50.9691 44.502 51.9365 44.4239 52.1867 44.328 52.3129 44.2122 52.3129 44.0963 52.3841 44.0386 52.2594 44.0386 51.9365 44.0386 51.0768 44.2314 50.1629 44.6178 49.1956 44.9653 48.1203 45.6603 47.6013 46.7032 47.6366 46.7032 47.4937 46.7221 47.3144 46.761 47.0991 46.6451 47.1355 46.5093 47.1355 46.3557 47.0991H46.0082C45.274 47.1715 44.7525 46.7591 44.4439 45.8627 44.1733 45.1826 44.0386 44.3041 44.0386 43.2294 44.0386 42.764 44.1345 42.5305 44.328 42.5305 44.5978 42.7454 44.7336 43.0505 44.7336 43.444 44.6559 43.9819 44.6755 44.5553 44.7914 45.1641 44.9453 46.0241 45.4087 46.4725 46.1818 46.5082h.5792C46.761 46.3292 46.7802 46.078 46.819 45.7558 46.819 45.3616 46.8379 45.1106 46.8768 45.003 46.2199 44.9317 45.8343 44.6626 45.7184 44.1964 45.3706 43.1578 45.2929 42.1541 45.4867 41.1868 45.5634 40.5064 45.892 40.1478 46.4712 40.1118z" fill="#025a92"/><path fill-rule="evenodd" clip-rule="evenodd" d="M60.0725 46.3464C60.1103 46.5264 60.0725 46.6511 59.9567 46.7228 59.8016 46.7588 59.6862 46.7053 59.6092 46.5617 59.4153 46.1315 59.0678 45.6478 58.5663 45.1103 58.4505 45.0027 58.3724 44.9489 58.3346 44.9489L58.2765 45.1103C58.2377 45.5402 58.2958 46.6511 58.4504 48.4429 58.5274 48.9087 58.7203 49.6793 59.0296 50.7539 59.1066 51.0048 59.1647 51.1481 59.2036 51.1837 59.2414 51.327 59.2994 51.5241 59.3771 51.775 59.4153 51.8827 59.4352 51.954 59.4352 51.9903 59.4734 52.1329 59.4153 52.2227 59.2617 52.2591 59.1066 52.2591 58.9908 52.1692 58.9138 51.9903 58.4505 51.095 58.1029 49.8938 57.8713 48.3887 57.7166 47.1711 57.6585 46.15 57.6973 45.3252V44.0353C57.6973 43.9277 57.7355 43.8564 57.8132 43.8201 57.8902 43.7848 57.9671 43.8026 58.0452 43.8739 58.3535 44.1612 58.5855 44.3579 58.7402 44.4652 59.2806 44.9314 59.7247 45.5587 60.0725 46.3464zm-3.6494-6.02C56.539 40.1475 56.6548 40.1115 56.7706 40.2191 56.8865 40.3264 56.9054 40.4701 56.8284 40.649 56.7125 40.7926 56.6929 40.9177 56.7706 41.025 56.8865 41.1326 57.0212 41.1512 57.1762 41.0792 57.6004 40.9363 58.1218 40.9537 58.7402 41.1326 59.1255 41.2403 59.3575 41.545 59.4352 42.0465 59.5511 42.5487 59.4734 42.9604 59.2036 43.2826 59.0877 43.4979 58.778 43.5513 58.2765 43.4437h-.1158C57.7743 43.4088 57.4657 43.4266 57.234 43.4979 57.0793 43.5339 57.0212 43.6775 57.06 43.9277 57.137 44.3935 57.1563 45.075 57.1181 45.97 57.0793 46.3649 57.0404 46.9028 57.0023 47.5828 56.8865 48.9803 56.7895 49.9477 56.7125 50.4852 56.6348 50.9874 56.5001 51.5601 56.3073 52.2049 56.2292 52.3482 56.1334 52.4202 56.0175 52.4202 55.9017 52.4202 55.8436 52.3482 55.8436 52.2049 55.8436 52.1692 55.8628 52.0078 55.9017 51.7216 55.9398 51.4703 55.9594 51.3092 55.9594 51.2379 56.3073 49.4102 56.5001 47.7264 56.539 46.1853 56.5767 45.5052 56.5578 44.9136 56.4809 44.4114 56.442 44.0888 56.3451 43.8564 56.1911 43.7128 56.0364 43.5339 56.1134 43.3368 56.4231 43.1215 56.8084 42.7989 57.4657 42.7276 58.3927 42.9066 58.778 42.9789 58.9719 42.7989 58.9719 42.3691 58.9719 41.9749 58.798 41.7603 58.4504 41.7239 57.8713 41.6163 57.5038 41.6163 57.3498 41.7239 57.1951 41.8316 56.9823 41.8501 56.7125 41.7778 56.6348 41.7425 56.519 41.6348 56.365 41.4552 56.2873 41.3839 56.2292 41.3301 56.1911 41.2938 56.0364 41.0075 56.1134 40.685 56.4231 40.3264zm-1.8537 2.1503H53.1212C53.1594 43.0138 53.3529 43.48 53.7004 43.8739 53.8163 44.0175 53.9121 44.0888 53.9902 44.0888 54.0668 44.0888 54.1438 44.0175 54.2219 43.8739 54.4535 43.5164 54.5694 43.0502 54.5694 42.4767zm-2.2013-2.0965h2.7805C55.4184 40.4162 55.5542 40.5239 55.5542 40.7028 55.515 40.9177 55.3603 41.025 55.0905 41.025 54.5883 41.025 53.8544 41.0435 52.8896 41.0792h-.2898C52.2523 41.1152 52.0783 41.0614 52.0783 40.9177 52.0006 40.8824 51.9818 40.7926 52.0206 40.649V40.5417C52.0206 40.3988 52.1364 40.345 52.3681 40.3802zm-.5792 3.0635C51.7497 43.3368 51.7889 43.2826 51.9044 43.2826 51.9818 43.2826 52.0395 43.3368 52.0783 43.4437 52.4259 44.4837 52.8896 45.1288 53.4687 45.3791 53.5069 45.4151 53.5846 45.4329 53.7004 45.4329V44.519C53.4687 44.4114 53.2371 44.179 53.0054 43.8201 52.7734 43.4979 52.6579 43.0502 52.6579 42.4767h-.4056C51.9818 42.5487 51.7889 42.5127 51.6731 42.3691 51.6339 42.2978 51.615 42.208 51.615 42.1003V42.0465C51.692 41.8316 51.8078 41.7603 51.9625 41.8316h3.5336C55.7281 41.8316 55.8436 41.9392 55.8436 42.1538 55.8047 42.3338 55.65 42.4225 55.3802 42.4225 55.3414 42.4225 55.2833 42.4411 55.2067 42.4767H55.1486C55.0709 43.1578 54.975 43.6237 54.8591 43.8739 54.6271 44.2324 54.4143 44.4477 54.2219 44.519 54.2596 44.8063 54.2796 45.1103 54.2796 45.4329 54.3566 45.4329 54.4535 45.3976 54.5694 45.3252 55.0327 45.1103 55.3025 44.519 55.3802 43.5513 55.4184 43.4088 55.515 43.3368 55.67 43.3368 55.7858 43.3368 55.8436 43.4088 55.8436 43.5513 55.9206 44.4837 55.5731 45.2361 54.801 45.8089 54.6464 45.9529 54.4724 46.0242 54.2796 46.0242V46.3464h1.2746C55.824 46.3827 55.9594 46.49 55.9594 46.6689 55.9206 46.8486 55.747 46.9562 55.4383 46.9915 54.9358 46.9915 54.5494 47.0097 54.2796 47.0453V47.5828C54.5883 47.6188 54.878 47.8337 55.1486 48.2276 55.4961 48.6578 55.7281 49.2673 55.8436 50.0553 55.9206 50.4852 55.9206 50.8437 55.8436 51.1303 55.8047 51.2379 55.7281 51.2914 55.6119 51.2914 55.4961 51.2914 55.4184 51.2379 55.3802 51.1303 55.3802 51.095 55.3603 50.915 55.3225 50.5928 55.2833 50.4139 55.2644 50.2702 55.2644 50.1626 55.1486 49.3749 54.9169 48.8014 54.5694 48.4429 54.5305 48.3352 54.4336 48.2639 54.2796 48.2276 54.3177 48.7298 54.3377 49.1414 54.3377 49.464 54.3377 49.6793 54.3177 50.02 54.2796 50.4852 54.2796 51.1656 54.2596 51.6492 54.2219 51.9365 54.183 52.2227 54.106 52.3667 53.9902 52.3667 53.874 52.3667 53.7963 52.2227 53.7585 51.9365 53.7585 50.8262 53.7386 50.0015 53.7004 49.464V48.1741C53.5846 48.2101 53.4687 48.2818 53.3529 48.3887 53.1594 48.5327 52.9854 48.8189 52.8315 49.2491L52.7734 49.3564C52.6957 49.7149 52.6187 50.2702 52.542 51.0226 52.5028 51.2016 52.4062 51.2914 52.2523 51.2914 52.0976 51.2554 52.0395 51.1481 52.0783 50.9692 52.1165 50.3241 52.1942 49.7513 52.31 49.2491 52.4259 48.7476 52.6187 48.3538 52.8896 48.0665 53.1212 47.7799 53.3907 47.6188 53.7004 47.5828V47.0453C52.8504 47.0453 52.4259 47.0639 52.4259 47.0988 52.1553 47.1711 51.9625 47.1173 51.8467 46.9377 51.769 46.8664 51.769 46.7228 51.8467 46.5078 51.8467 46.4002 51.9625 46.3464 52.1942 46.3464h1.5062V46.0242C53.5846 46.0242 53.4687 45.9885 53.3529 45.9165 52.6579 45.63 52.1364 45.075 51.7889 44.2503 51.7497 44.179 51.7497 43.9815 51.7889 43.659V43.4437z" fill="#025a92"/><path fill-rule="evenodd" clip-rule="evenodd" d="M14.794 24.5555 14.3863 25.233l-1.8174-1.0935C12.2802 23.9663 12.0884 23.8619 11.9929 23.8273 11.8379 23.7735 11.686 23.776 11.537 23.8351 11.3888 23.8947 11.2573 24.0183 11.1432 24.2076 11.0281 24.4001 10.9796 24.5683 10.9996 24.7137 11.0192 24.8588 11.0808 24.9757 11.1831 25.0641 11.2854 25.1528 11.4697 25.2769 11.7352 25.4372l1.8559 1.1167L13.1834 27.2315l-1.7622-1.0604C11.0185 25.9288 10.7447 25.7388 10.6004 25.6023 10.4564 25.4658 10.3562 25.3136 10.3013 25.1461 10.2457 24.9785 10.234 24.7921 10.265 24.5868 10.2967 24.3812 10.3922 24.1456 10.5519 23.8797 10.7447 23.5593 10.9276 23.3386 11.1019 23.2178 11.2754 23.0966 11.4501 23.0236 11.6261 22.9986 11.8022 22.9737 11.9644 22.9851 12.1123 23.0325 12.3315 23.1041 12.6288 23.2527 13.0041 23.4787l1.7899 1.0768z" fill="#025a92"/><path fill-rule="evenodd" clip-rule="evenodd" d="M9.34167 26.1248l3.55213 1.6499L12.5694 28.4726 9.52202 28.8243l2.37238 1.1021L11.5846 30.5926 8.03289 28.9427 8.36685 28.2231 11.3483 27.8674 9.03194 26.791l.30973-.6662z" fill="#025a92"/><path fill-rule="evenodd" clip-rule="evenodd" d="M11.1057 31.9106 7.44343 30.5213 7.72401 29.7817l3.66229 1.389L11.1057 31.9106z" fill="#025a92"/><path fill-rule="evenodd" clip-rule="evenodd" d="M6.85851 32.2321 11.0133 32.0336 10.7635 32.8537 7.7018 32.9581l2.4935 1.7615L9.95154 35.5219 6.61329 33.0401l.24522-.808z" fill="#025a92"/><path fill-rule="evenodd" clip-rule="evenodd" d="M6.08358 34.9388 9.9226 35.7126l-.57348 2.8467-.6494-.1312.41737-2.0711L8.26595 36.1852 7.87745 38.1127 7.23055 37.9822l.3885-1.9275L6.57402 35.8444 6.14168 37.989 5.49477 37.8586 6.08358 34.9388z" fill="#025a92"/><path fill-rule="evenodd" clip-rule="evenodd" d="M7.54223 39.697 7.4852 40.279C7.44849 40.6565 7.44136 40.8939 7.46382 40.9912 7.48663 41.0881 7.53475 41.1669 7.60781 41.2278 7.68052 41.2888 7.77497 41.3244 7.89188 41.3362 8.0234 41.349 8.13282 41.3241 8.22014 41.2624 8.30782 41.1997 8.36806 41.1059 8.40192 40.9805 8.41725 40.9177 8.44006 40.7267 8.47107 40.4073L8.53094 39.7936 7.54223 39.697zM5.36948 38.6905 9.26767 39.0704 9.10585 40.7274C9.06486 41.1437 9.00035 41.4427 8.91231 41.6249 8.82357 41.8066 8.68456 41.946 8.49423 42.0415 8.30426 42.1378 8.09397 42.1745 7.86372 42.152 7.57146 42.1239 7.338 42.0141 7.16407 41.8234 6.99049 41.6331 6.89533 41.3643 6.87929 41.0172 6.76345 41.1776 6.64048 41.3077 6.51075 41.4067 6.38137 41.5058 6.15575 41.6349 5.83426 41.7927L5.02732 42.1951 5.11963 41.2535 6.02316 40.7673C6.34608 40.5948 6.55031 40.4751 6.63656 40.4084 6.72282 40.3418 6.78412 40.268 6.8219 40.1878 6.85897 40.1069 6.88641 39.9764 6.90388 39.7954L6.91956 39.636 5.2925 39.4774 5.36948 38.6905z" fill="#025a92"/><path fill-rule="evenodd" clip-rule="evenodd" d="M6.29935 42.599 6.37811 43.3678C6.12042 43.4155 5.93116 43.5107 5.81105 43.6529 5.69058 43.7947 5.63105 43.9865 5.63248 44.2267 5.63426 44.4816 5.68879 44.6733 5.79715 44.8016 5.90586 44.9303 6.03203 44.9941 6.17638 44.9934 6.26905 44.9927 6.34782 44.9652 6.41233 44.9103 6.47684 44.8558 6.53316 44.7607 6.58056 44.6252 6.61193 44.5322 6.66753 44.3208 6.74772 43.9908 6.85073 43.5666 6.97762 43.2683 7.13016 43.0965 7.34437 42.8549 7.6067 42.7333 7.91643 42.7315 8.11567 42.7305 8.30243 42.7857 8.47672 42.898 8.65137 43.0103 8.78432 43.1724 8.87627 43.3849 8.96823 43.5973 9.01528 43.8539 9.01706 44.1547 9.01955 44.6462 8.9137 45.0169 8.69984 45.2664 8.48563 45.5163 8.19872 45.6481 7.83873 45.6628L7.79988 44.8722C8.0009 44.8373 8.14561 44.7639 8.23293 44.6523 8.32026 44.54 8.36374 44.3732 8.36231 44.1505 8.36124 43.9206 8.31277 43.7409 8.21761 43.6115 8.15666 43.5281 8.07539 43.4868 7.97381 43.4872 7.8815 43.4879 7.80202 43.5271 7.73679 43.6062 7.65375 43.7064 7.56785 43.9491 7.4791 44.3344 7.39071 44.7193 7.29804 45.0044 7.20216 45.1894 7.10593 45.3744 6.97405 45.5191 6.80618 45.6243 6.63866 45.7294 6.43086 45.7825 6.18315 45.784 5.95896 45.785 5.74832 45.7244 5.55157 45.6004 5.35518 45.4767 5.20869 45.3013 5.1121 45.0739 5.01551 44.8465 4.96668 44.5628 4.96455 44.2225 4.96169 43.7274 5.07397 43.3467 5.30172 43.0801 5.52876 42.8132 5.86166 42.6528 6.29935 42.599z" fill="#025a92"/><path fill-rule="evenodd" clip-rule="evenodd" d="M9.07515 46.9947 5.16945 47.2841 5.11103 46.4957 9.01673 46.2063 9.07515 46.9947z" fill="#025a92"/><path fill-rule="evenodd" clip-rule="evenodd" d="M5.34841 48.9625l3.22277-.448-.16004-1.1509L9.06767 47.272 9.49609 50.3547 8.83992 50.4459l-.15968-1.1484L5.45712 49.7459 5.34841 48.9625z" fill="#025a92"/><path fill-rule="evenodd" clip-rule="evenodd" d="M5.98242 52.5485 7.58667 52.1696l1.87692-1.9183L9.67673 51.1534 8.38078 52.407 10.0969 52.9288 10.3065 53.8159 7.76239 52.9373 6.16384 53.3151 5.98242 52.5485z" fill="#025a92"/><path fill-rule="evenodd" clip-rule="evenodd" d="M9.6925 57.8934C9.28618 58.072 9.01993 58.3015 8.89269 58.5809 8.76581 58.8607 8.76581 59.1448 8.89269 59.4328 9.01958 59.7218 9.22809 59.9129 9.51679 60.0066 9.8062 60.0996 10.1583 60.0551 10.5743 59.8726 10.9852 59.6919 11.2518 59.467 11.3752 59.1975 11.4978 58.9284 11.4939 58.6451 11.3623 58.3468 11.2315 58.0484 11.023 57.8528 10.7382 57.7604 10.4535 57.6678 10.1049 57.712 9.6925 57.8934zM9.34 57.1584C9.70498 56.9977 10.035 56.9179 10.3312 56.9179 10.5497 56.9193 10.7621 56.9581 10.9696 57.0355 11.177 57.1128 11.3524 57.2197 11.4964 57.357 11.6888 57.5387 11.8499 57.7754 11.9782 58.067 12.2103 58.5955 12.2324 59.0902 12.0442 59.5515 11.856 60.0127 11.47 60.3716 10.8865 60.6286 10.3077 60.883 9.78553 60.9248 9.32004 60.7537c-.46513-.1708-.81371-.5197-1.04503-1.0458C8.04049 59.1747 8.01661 58.6789 8.20337 58.2216 8.39049 57.7636 8.76937 57.4097 9.34 57.1584z" fill="#025a92"/><path fill-rule="evenodd" clip-rule="evenodd" d="M9.48537 62.1126l3.40703-1.9318 1.3238 2.3357L13.6402 62.8433l-.9346-1.6477L11.8994 61.6528 12.7056 63.0746 12.1293 63.4015 11.3231 61.9793 9.87494 62.8002 9.48537 62.1126z" fill="#025a92"/><path fill-rule="evenodd" clip-rule="evenodd" d="M13.7933 66.5919 14.3375 67.1412C14.1668 67.3404 14.0791 67.5329 14.0749 67.7189 14.0706 67.9053 14.1444 68.0914 14.2965 68.2778 14.4573 68.4749 14.6202 68.5893 14.7856 68.6214 14.9509 68.6538 15.0896 68.6239 15.2008 68.5327 15.2728 68.4742 15.3163 68.4033 15.3323 68.3202 15.3487 68.2368 15.3323 68.1278 15.2842 67.9923 15.2507 67.9004 15.1609 67.7008 15.0165 67.3935 14.8298 66.999 14.7417 66.6871 14.7524 66.4576 14.7674 66.135 14.8946 65.8755 15.1349 65.6795 15.2892 65.554 15.4695 65.4795 15.6755 65.4571 15.8816 65.435 16.0872 65.4778 16.2922 65.5854 16.4967 65.6927 16.6949 65.8631 16.8852 66.0962 17.1957 66.4772 17.3464 66.8318 17.3361 67.1608 17.3268 67.4898 17.1861 67.7724 16.9152 68.0098L16.3884 67.4185C16.5231 67.2652 16.5894 67.1177 16.5873 66.9754 16.5851 66.8336 16.5138 66.676 16.3727 66.5039 16.228 66.326 16.0776 66.2163 15.9218 66.1756 15.822 66.1489 15.7329 66.1678 15.6545 66.2316 15.5825 66.29 15.5458 66.3706 15.544 66.4732 15.5422 66.603 15.6278 66.8461 15.8006 67.2018 15.9739 67.5571 16.0808 67.8369 16.1221 68.0411 16.1635 68.2454 16.1517 68.4407 16.0876 68.6282 16.0231 68.8153 15.8947 68.9874 15.703 69.1436 15.5294 69.2858 15.327 69.3702 15.0964 69.3973 14.8658 69.4244 14.6416 69.3802 14.4238 69.2637 14.2057 69.1475 13.989 68.9575 13.774 68.6937 13.4607 68.3102 13.3093 67.9431 13.3185 67.5931 13.3281 67.2428 13.4864 66.9092 13.7933 66.5919z" fill="#025a92"/><path fill-rule="evenodd" clip-rule="evenodd" d="M18.1755 71.2418 18.5469 71.9557C18.1612 72.1749 17.7987 72.2615 17.4591 72.2155 17.1187 72.1695 16.7997 71.9977 16.5024 71.7008 16.1339 71.3334 15.9567 70.906 15.9706 70.4177 15.9849 69.9298 16.2094 69.4675 16.6446 69.0312 17.1051 68.57 17.582 68.3305 18.0753 68.313 18.5682 68.2952 19.0084 68.4806 19.3969 68.868 19.7362 69.2062 19.9116 69.5816 19.9234 69.9932 19.9312 70.2377 19.856 70.5022 19.6977 70.787L19.0113 70.3664C19.1218 70.19 19.1667 70.0082 19.146 69.8214 19.125 69.6339 19.0401 69.4668 18.8915 69.3182 18.6859 69.1129 18.4456 69.0205 18.1705 69.0401 17.895 69.0597 17.5927 69.2351 17.2627 69.5655 16.9134 69.9159 16.7277 70.2285 16.7052 70.5029 16.6828 70.7777 16.7726 71.0151 16.974 71.2168 17.1226 71.3654 17.298 71.4453 17.4993 71.4577 17.7011 71.4706 17.9263 71.3979 18.1755 71.2418z" fill="#025a92"/><path fill-rule="evenodd" clip-rule="evenodd" d="M21.4302 70.8196 18.8721 73.7851 18.2734 73.2686 20.8315 70.3031 21.4302 70.8196z" fill="#025a92"/><path fill-rule="evenodd" clip-rule="evenodd" d="M19.4911 74.3284 21.8406 71.1951l2.3232 1.7419L23.7664 73.467 22.0759 72.1992 21.5551 72.8942l1.5733 1.1794L22.732 74.6018l-1.5728-1.1797L20.5197 74.275 22.2701 75.5873 21.8745 76.1155l-2.3834-1.7871z" fill="#025a92"/><path fill-rule="evenodd" clip-rule="evenodd" d="M22.5858 76.5947l2.0152-3.3582L25.2611 73.6325 25.2892 76.6999l1.3462-2.2423L27.2652 74.8351 25.25 78.1936 24.5696 77.7852 24.5304 74.7827 23.2159 76.9729 22.5858 76.5947z" fill="#025a92"/><path fill-rule="evenodd" clip-rule="evenodd" d="M29.0378 78.4235 29.6312 78.9663C29.345 79.3049 29.0346 79.5109 28.6988 79.5843 28.3634 79.6578 28.0052 79.6061 27.6242 79.4293 27.1519 79.2108 26.839 78.8701 26.6843 78.4067 26.5296 77.9437 26.582 77.433 26.8408 76.8734 27.1145 76.2817 27.4802 75.8932 27.9371 75.7075 28.3944 75.5218 28.8717 75.5439 29.3696 75.7745 29.8041 75.9759 30.0978 76.2678 30.25 76.6503 30.3416 76.8773 30.3615 77.1518 30.3109 77.4733L29.5221 77.3143C29.5649 77.1104 29.545 76.9247 29.4608 76.7561 29.3771 76.5879 29.2399 76.4592 29.0492 76.3708 28.7854 76.2489 28.5281 76.2447 28.2768 76.3577 28.0252 76.4706 27.801 76.739 27.6049 77.1628 27.3968 77.6119 27.3298 77.9694 27.4029 78.2349 27.4763 78.5005 27.642 78.6929 27.9008 78.8127 28.0915 78.9011 28.2832 78.9164 28.4771 78.859 28.6703 78.8013 28.8574 78.6559 29.0378 78.4235z" fill="#025a92"/><path fill-rule="evenodd" clip-rule="evenodd" d="M29.9304 80.3601l1.2756-3.7029L33.9516 77.6032 33.736 78.2294 31.7378 77.5412 31.4551 78.3624 33.3143 79.0025l-.2149.6237L31.2399 78.9861 30.8931 79.994 32.9615 80.7065 32.7469 81.3306 29.9304 80.3601z" fill="#025a92"/><path fill-rule="evenodd" clip-rule="evenodd" d="M56.3069 79.334l-.9726-1.2068L55.2933 79.6733 56.3069 79.334zm1.872 1.008L57.363 80.615 56.7567 79.8797 55.2722 80.3762 55.2473 81.3225 54.4518 81.5884 54.6571 77.3904 55.4501 77.1253l2.7288 3.2167z" fill="#025a92"/><path fill-rule="evenodd" clip-rule="evenodd" d="M58.5033 80.1948l-1.6036-3.5731L57.6015 76.3066 60.1346 78.0363 59.0639 75.6504 59.734 75.3492 61.3379 78.9227 60.614 79.2478l-2.4864-1.6841L59.1737 79.894 58.5033 80.1948z" fill="#025a92"/><path fill-rule="evenodd" clip-rule="evenodd" d="M61.0774 75.3664l1.2899 2.2504L62.8794 77.3231C63.0712 77.2137 63.2034 77.1235 63.2758 77.0526 63.3713 76.9617 63.4365 76.8612 63.4718 76.7529 63.5071 76.6441 63.5042 76.5009 63.4633 76.3219 63.4223 76.143 63.3267 75.9224 63.176 75.6597 63.0252 75.397 62.8866 75.2088 62.7597 75.0944 62.6328 74.9807 62.5048 74.908 62.3765 74.8774 62.2479 74.8464 62.1114 74.8539 61.967 74.8991 61.859 74.9326 61.6648 75.0296 61.3853 75.1899L61.0774 75.3664zM60.0612 75.185 61.3158 74.4664C61.5981 74.3042 61.8262 74.202 61.9994 74.1603 62.2318 74.1047 62.4624 74.1111 62.6905 74.1795 62.9186 74.2479 63.1325 74.3695 63.3307 74.5438 63.5296 74.7188 63.7199 74.9647 63.9024 75.2833 64.0628 75.5628 64.1665 75.8237 64.2128 76.0664 64.2698 76.3622 64.2631 76.6317 64.1929 76.8748 64.1408 77.059 64.0314 77.2415 63.8667 77.4226 63.7427 77.557 63.5538 77.6974 63.3004 77.8424L62.0094 78.5827 60.0612 75.185z" fill="#025a92"/><path fill-rule="evenodd" clip-rule="evenodd" d="M68.011 74.6856 65.9822 72.1418 65.0737 72.8664 64.6602 72.3482 67.0935 70.4078 67.5066 70.9257 66.6002 71.6485l2.0288 2.5441L68.011 74.6856z" fill="#025a92"/><path fill-rule="evenodd" clip-rule="evenodd" d="M69.8247 73.2108l-2.697-2.8396L69.2327 68.3713 69.6889 68.8518 68.1567 70.307 68.7548 70.9365l1.4256-1.3544L70.6345 70.0607 69.2088 71.4148 69.9431 72.1879l1.5864-1.5073L71.9843 71.1592 69.8247 73.2108z" fill="#025a92"/><path fill-rule="evenodd" clip-rule="evenodd" d="M72.9421 67.9073 73.6286 67.4881C73.8738 67.8574 73.9854 68.2131 73.9626 68.5556 73.9398 68.8981 73.7904 69.2278 73.5142 69.545 73.1727 69.9375 72.7586 70.1431 72.271 70.1631 71.7831 70.1827 71.3065 69.9899 70.8414 69.5857 70.3499 69.158 70.0783 68.6985 70.027 68.2077 69.9756 67.7173 70.1296 67.265 70.4903 66.8509 70.8047 66.4894 71.1665 66.2888 71.577 66.2492 71.8201 66.2243 72.0885 66.2813 72.384 66.4199L72.0115 67.1331C71.8276 67.0348 71.643 67.0027 71.4584 67.0365 71.273 67.0701 71.1119 67.1663 70.974 67.3249 70.7833 67.5437 70.707 67.79 70.7459 68.063 70.784 68.3364 70.9797 68.6262 71.3318 68.932 71.7054 69.2567 72.0301 69.4214 72.3056 69.4249 72.5807 69.4285 72.8124 69.3226 72.9992 69.1077 73.1371 68.9491 73.2052 68.7688 73.2038 68.567 73.202 68.3649 73.115 68.145 72.9421 67.9073z" fill="#025a92"/><path fill-rule="evenodd" clip-rule="evenodd" d="M74.9015 67.7931 71.7044 65.5305 72.1617 64.8851 73.4199 65.7754 74.3149 64.5108 73.0563 63.6201 73.5133 62.9746 76.7104 65.2372 76.2534 65.8827 74.8556 64.8933 73.9602 66.1582 75.3585 67.1473 74.9015 67.7931z" fill="#025a92"/><path fill-rule="evenodd" clip-rule="evenodd" d="M77.1146 64.6021 73.7072 62.6706 74.0865 62.0012 77.1524 61.8965l-2.2751-1.2896L75.2395 59.9675l3.4074 1.9311L78.2555 62.5893 75.2548 62.7034 77.4767 63.9626 77.1146 64.6021z" fill="#025a92"/><path fill-rule="evenodd" clip-rule="evenodd" d="M77.4679 59.8241C77.8746 60.0016 78.2232 60.0419 78.5151 59.946 78.807 59.8498 79.0155 59.6569 79.1417 59.3682 79.2679 59.0792 79.2675 58.7969 79.1399 58.5207 79.0127 58.2444 78.7407 58.0156 78.3244 57.8338 77.9131 57.6545 77.567 57.6107 77.2858 57.703 77.0049 57.795 76.7993 57.9903 76.6688 58.289 76.5387 58.5877 76.5359 58.8732 76.6606 59.1455 76.7861 59.4174 77.0552 59.6437 77.4679 59.8241zM77.1664 60.5815C76.8011 60.4222 76.5177 60.2333 76.317 60.0155 76.1698 59.8544 76.0547 59.6715 75.9713 59.467 75.8876 59.2624 75.8469 59.0603 75.8505 58.8618 75.8533 58.5969 75.9182 58.3182 76.0465 58.0259 76.2768 57.497 76.6257 57.1452 77.0923 56.9713 77.5592 56.7966 78.0842 56.8373 78.6687 57.0921 79.2479 57.3452 79.6328 57.7005 79.8225 58.1582 80.0128 58.6162 79.9925 59.1088 79.7622 59.6363 79.5295 60.1702 79.1813 60.5234 78.7183 60.6963 78.2553 60.8691 77.7381 60.8306 77.1664 60.5815z" fill="#025a92"/><path fill-rule="evenodd" clip-rule="evenodd" d="M80.6235 57.3514 76.9324 56.141 77.1787 55.3899l3.0642 1.0042L80.8552 54.5255 81.4825 54.7312 80.6235 57.3514z" fill="#025a92"/><path fill-rule="evenodd" clip-rule="evenodd" d="M79.8496 53.2121C80.2823 53.3098 80.6323 53.2845 80.9011 53.1355 81.1698 52.9865 81.3388 52.7584 81.4086 52.4505 81.4781 52.1432 81.425 51.8659 81.2482 51.6186 81.0718 51.3712 80.7617 51.1976 80.3183 51.0964 79.881 50.9973 79.5324 51.0194 79.274 51.162 79.0145 51.3053 78.8495 51.5359 78.7772 51.8535 78.7052 52.1714 78.7561 52.4526 78.9297 52.6964 79.1036 52.9402 79.4105 53.1123 79.8496 53.2121zM79.6953 54.0127C79.3064 53.9243 78.9931 53.792 78.7554 53.6156 78.5804 53.4848 78.4328 53.3265 78.3124 53.1412 78.1919 52.9559 78.1149 52.7652 78.0807 52.5691 78.0337 52.3086 78.0454 52.0228 78.1163 51.712 78.2436 51.1492 78.5205 50.7386 78.9464 50.4798 79.372 50.2214 79.896 50.1626 80.5179 50.3037 81.1342 50.4435 81.5786 50.7207 81.8509 51.1349S82.1956 52.0367 82.0684 52.5977C81.9393 53.1654 81.6635 53.5778 81.2407 53.8344 80.8184 54.0911 80.303 54.1506 79.6953 54.0127z" fill="#025a92"/><path fill-rule="evenodd" clip-rule="evenodd" d="M81.2892 48.198 80.6338 48.1217 80.8302 46.4287l1.55.18C82.5203 46.7919 82.6333 47.0467 82.7178 47.3732 82.8023 47.6994 82.8265 48.0226 82.7894 48.3427 82.7417 48.7497 82.6151 49.0944 82.4095 49.377 82.2035 49.66 81.9333 49.8586 81.5975 49.9737 81.2629 50.0895 80.9086 50.1252 80.5351 50.0817 80.1298 50.0346 79.7802 49.9081 79.485 49.7017 79.1896 49.495 78.9768 49.2184 78.8467 48.872 78.7465 48.6072 78.718 48.2892 78.7611 47.9178 78.8175 47.4345 78.9625 47.0692 79.1967 46.8215 79.4305 46.5731 79.731 46.4312 80.0974 46.3949L80.153 47.1922C79.9555 47.2246 79.7926 47.3098 79.664 47.4481 79.536 47.5867 79.459 47.7692 79.4326 47.9959 79.3931 48.3391 79.4701 48.6243 79.6636 48.8524 79.8578 49.0805 80.169 49.2188 80.5974 49.2687 81.059 49.3221 81.4172 49.2598 81.6717 49.0816 81.9265 48.9033 82.073 48.6478 82.1122 48.3149 82.1308 48.1506 82.1179 47.982 82.0723 47.8088 82.0274 47.6363 81.965 47.4851 81.8873 47.3558L81.3937 47.2984 81.2892 48.198z" fill="#025a92"/><path fill-rule="evenodd" clip-rule="evenodd" d="M82.9572 44.9934 81.3088 44.9674 79.018 46.366 79.0327 45.4389 80.5966 44.5418 79.0619 43.6144 79.0761 42.7037l2.2505 1.476L82.9693 44.2053 82.9572 44.9934z" fill="#025a92"/><path fill-rule="evenodd" clip-rule="evenodd" d="M80.9958 39.4931 82.0326 39.3438 81.9286 38.6195C81.8879 38.3372 81.8544 38.1594 81.8273 38.0859 81.7899 37.9726 81.7247 37.8853 81.632 37.824 81.5397 37.763 81.4246 37.742 81.2866 37.7616 81.1708 37.778 81.076 37.8208 81.0029 37.8888 80.9299 37.9566 80.8828 38.0467 80.8607 38.1587 80.8393 38.2709 80.8539 38.5051 80.9053 38.8612L80.9958 39.4931zM79.4543 39.7144 80.3507 39.5858 80.2769 39.0725C80.2331 38.7678 80.2013 38.5789 80.1821 38.5058 80.1472 38.3743 80.0855 38.2759 79.9975 38.21 79.9101 38.1444 79.8036 38.1205 79.6785 38.1383 79.5587 38.1558 79.466 38.2029 79.4005 38.2798 79.3352 38.3568 79.3039 38.4613 79.3071 38.5942 79.3092 38.6726 79.3367 38.8968 79.3898 39.265L79.4543 39.7144zM78.9218 40.5902 78.699 39.0401C78.6548 38.7339 78.6349 38.503 78.6388 38.3486 78.6423 38.1939 78.6762 38.0517 78.7404 37.9213 78.8045 37.7905 78.8983 37.6757 79.0219 37.577 79.1449 37.4786 79.2907 37.4169 79.4582 37.3927 79.6396 37.3667 79.8132 37.3916 79.9789 37.4676 80.1443 37.5435 80.2773 37.6597 80.3774 37.8168 80.412 37.5706 80.5029 37.3724 80.6508 37.2216 80.798 37.0709 80.9837 36.9789 81.2079 36.9472 81.3839 36.9215 81.5614 36.9383 81.74 36.996 81.9179 37.0541 82.0672 37.1468 82.1873 37.2744 82.3074 37.4023 82.3937 37.5684 82.4464 37.773 82.4796 37.9013 82.5334 38.215 82.6086 38.7132L82.7986 40.0331 78.9218 40.5902z" fill="#025a92"/><path fill-rule="evenodd" clip-rule="evenodd" d="M82.2076 36.2147 78.4017 37.1397 77.7156 34.3179 78.36 34.1614 78.8586 36.2147 79.7026 36.0098 79.2382 34.0987 79.8798 33.9433 80.3438 35.8537 81.3796 35.6021 80.8631 33.476 81.504 33.3202 82.2076 36.2147z" fill="#025a92"/><path fill-rule="evenodd" clip-rule="evenodd" d="M77.3793 33.3095 81.1218 32.1547 81.3549 32.91 77.6124 34.0648 77.3793 33.3095z" fill="#025a92"/><path fill-rule="evenodd" clip-rule="evenodd" d="M76.8079 31.6753 76.5363 30.9358 78.8637 30.0811C79.1678 29.9691 79.4119 29.91 79.5951 29.9032 79.8357 29.8968 80.0553 29.9638 80.2538 30.1053 80.4534 30.2464 80.6095 30.4721 80.7228 30.7811 80.8561 31.1443 80.8569 31.4604 80.7257 31.7306 80.5945 32.0007 80.3326 32.2089 79.9405 32.355L79.6033 31.685C79.8111 31.5991 79.9483 31.5135 80.0157 31.4283 80.1183 31.2993 80.1397 31.1528 80.0795 30.9892 80.0186 30.8235 79.9284 30.724 79.809 30.6898 79.6889 30.6563 79.4804 30.6941 79.1831 30.8035L76.8079 31.6753z" fill="#025a92"/><path fill-rule="evenodd" clip-rule="evenodd" d="M76.0682 29.8637l3.6005-1.5405L79.9799 29.0499 76.379 30.5904 76.0682 29.8637z" fill="#025a92"/><path fill-rule="evenodd" clip-rule="evenodd" d="M79.4632 27.7928l-3.493 1.7711L75.6227 28.8774l1.6071-2.6122L74.8974 27.4478l-.3322-.6554L78.0585 25.0217 78.4171 25.7291 76.8531 28.2922l2.2782-1.1548L79.4632 27.7928z" fill="#025a92"/><path fill-rule="evenodd" clip-rule="evenodd" d="M75.4824 23.5899 74.9274 23.9474 74.0046 22.5146 75.3156 21.6695C75.5401 21.7219 75.7889 21.847 76.0616 22.0456 76.3346 22.2437 76.5584 22.4786 76.733 22.7495 76.9547 23.0931 77.0763 23.4402 77.0966 23.7895 77.1169 24.1385 77.0342 24.4639 76.8485 24.7661 76.6632 25.0677 76.4116 25.3204 76.0965 25.5242 75.7533 25.7449 75.4022 25.8696 75.0429 25.8974 74.684 25.9256 74.3443 25.8468 74.0235 25.6615 73.778 25.5207 73.5541 25.2933 73.3513 24.9789 73.0883 24.5705 72.9682 24.1959 72.9917 23.8555 73.0149 23.5151 73.1567 23.2146 73.4162 22.9541L73.9654 23.5347C73.8339 23.6851 73.7623 23.8544 73.7512 24.043 73.7398 24.2311 73.7961 24.4211 73.9195 24.6125 74.1069 24.9034 74.3475 25.0748 74.6426 25.1275 74.9374 25.1803 75.2657 25.0901 75.6278 24.8567 76.0184 24.6047 76.2558 24.3292 76.3392 24.0294 76.423 23.73 76.3738 23.4392 76.1924 23.158 76.1025 23.0186 75.9853 22.8967 75.8402 22.7919 75.6955 22.6875 75.5519 22.6098 75.4093 22.5595L74.9916 22.8286 75.4824 23.5899z" fill="#025a92"/><path fill-rule="evenodd" clip-rule="evenodd" d="M27.762 30.4368 26.8631 25.978C26.698 25.454 26.4375 25.2648 25.9132 25.2648 25.2299 25.2648 24.6786 25.2648 24.6786 25.978L25.4128 30.4368H27.762zm6.9906 36.8917V56.1907H31.0581V66.7803C31.0581 67.3285 31.4146 67.3285 31.8547 67.3285h2.8979zM56.83 66.7803V56.1907H53.1325V67.3285h2.8977C56.4736 67.3285 56.83 67.3285 56.83 66.7803zm3.8804-13.7834L61.5255 38.9613H26.3626L27.1774 52.9969C27.1774 53.6587 27.9954 54.1951 29.0084 54.1951H58.8766C59.8895 54.1951 60.7104 53.6587 60.7104 52.9969zm1.1715-18.611L62.1068 33.0946H25.7813L26.0059 34.3859h2.3402L28.6459 37.4783H59.2391L59.5388 34.3859h2.3431zM62.4754 30.4368 63.2125 25.978C63.2125 25.2648 62.6582 25.2648 61.975 25.2648 61.4507 25.2648 61.1869 25.454 61.0251 25.978L60.1262 30.4368h2.3492zM66.4698 24.9294 64.8966 35.941H61.5255L61.3576 37.4783H64.8966L63.5122 55.2291c0 1.0368-.923099999999998 1.8754-2.0615 1.8754H60.0631v.9709h2.547v4.1591c0 .785200000000003-1.1384 1.4232-2.547 1.4232v4.8691C60.0631 69.2521 59.4098 69.8395 58.6039 69.8395H50.5884V58.0754C50.5884 57.2485 49.7497 56.5774 48.7161 56.5774H39.1722C38.1386 56.5774 37.2995 57.2485 37.2995 58.0754V69.8395H29.2842C28.478 69.8395 27.8247 69.2521 27.8247 68.5268V63.6577c-1.4082.0-2.547-.637999999999998-2.547-1.4232V58.0754h2.547v-.9709H26.4375c-1.1388.0-2.0587-.8386-2.0587-1.8754L22.9916 37.4783h3.5386L26.3626 35.941h-3.371L21.4184 24.9294C21.5923 23.6947 24.1721 23.0952 25.7813 23.0952c2.0883.0 2.7149.318000000000001 3.7784 1.8342l1.0486 5.5074H57.2795l1.0489-5.5074c1.0607-1.5162 1.6898-1.8342 3.7784-1.8342C63.7161 23.0952 66.2959 23.6947 66.4698 24.9294z" fill="#025a92"/><path fill-rule="evenodd" clip-rule="evenodd" d="M29.3021 35.941h29.284V34.3859H29.3021V35.941z" fill="#025a92"/></svg>