<?xml version="1.0" encoding="UTF-8"?>
<svg xmlns="http://www.w3.org/2000/svg" viewBox="0 0 170.07874 170.07874">
  <defs>
    <style>
      .cls-1 {
        fill: #fff;
      }

      .cls-2, .cls-3, .cls-4, .cls-5, .cls-6, .cls-7, .cls-8, .cls-9, .cls-10, .cls-11 {
        fill: none;
        stroke: #fff;
      }

      .cls-2, .cls-4, .cls-6, .cls-8, .cls-10, .cls-11 {
        stroke-linejoin: round;
      }

      .cls-2, .cls-8 {
        stroke-width: 2px;
      }

      .cls-3, .cls-5, .cls-7, .cls-9 {
        stroke-miterlimit: 10;
      }

      .cls-3, .cls-6 {
        stroke-width: 1.25px;
      }

      .cls-4, .cls-6, .cls-8, .cls-10, .cls-11 {
        stroke-linecap: round;
      }

      .cls-4, .cls-9 {
        stroke-width: 1.5px;
      }

      .cls-12 {
        opacity: .5;
      }

      .cls-13 {
        opacity: .6;
      }

      .cls-5, .cls-10 {
        stroke-width: .75px;
      }

      .cls-14 {
        opacity: .2;
      }

      .cls-15 {
        opacity: .8;
      }

      .cls-16 {
        opacity: .4;
      }

      .cls-7, .cls-11 {
        stroke-width: .5px;
      }
    </style>
  </defs>
  <g id="_图层_3_复制" data-name="图层 3_复制">
    <g class="cls-12">
      <polygon class="cls-8" points="85 9.01739 29.74233 44.83334 85 94.08718 140.83436 44.83334 85 9.01739"/>
      <line class="cls-2" x1="46.02475" y1="59.34665" x2="101.55828" y2="19.639"/>
      <line class="cls-2" x1="64.59681" y1="75.90083" x2="120.56519" y2="31.83132"/>
      <line class="cls-2" x1="68.07627" y1="19.98672" x2="124.08589" y2="59.60787"/>
      <line class="cls-2" x1="49.73006" y1="31.87804" x2="105.61612" y2="75.90083"/>
      <g class="cls-15">
        <polygon class="cls-4" points="33.47853 58.23211 85 23.00512 136.5092 58.23211 85 104.61248 33.47853 58.23211"/>
        <line class="cls-9" x1="48.85872" y1="72.07758" x2="100.5238" y2="33.62181"/>
        <line class="cls-9" x1="66.13003" y1="87.62546" x2="117.95495" y2="45.54292"/>
        <line class="cls-9" x1="103.72698" y1="87.75017" x2="52.11864" y2="45.48723"/>
        <line class="cls-9" x1="121.29433" y1="71.93202" x2="69.28518" y2="33.74988"/>
      </g>
      <g class="cls-13">
        <polygon class="cls-6" points="85 35.04193 37.43558 69.09101 85 113.26279 132.62577 69.09101 85 35.04193"/>
        <line class="cls-3" x1="51.69488" y1="82.33323" x2="99.61597" y2="45.49133"/>
        <line class="cls-3" x1="67.64977" y1="97.1501" x2="115.72225" y2="57.00618"/>
        <line class="cls-3" x1="102.26219" y1="97.25251" x2="54.53697" y2="56.84895"/>
        <line class="cls-3" x1="118.16865" y1="82.49964" x2="70.40285" y2="45.49133"/>
      </g>
      <g class="cls-16">
        <polygon class="cls-10" points="40.45399 78.69837 84.92025 45.82721 129.31288 78.69837 85 120.84561 40.45399 78.69837"/>
        <line class="cls-5" x1="53.8659" y1="91.38806" x2="98.67685" y2="56.01348"/>
        <line class="cls-5" x1="68.84492" y1="105.56047" x2="113.55068" y2="67.02702"/>
        <line class="cls-5" x1="101.07054" y1="105.56047" x2="56.43763" y2="66.88265"/>
        <line class="cls-5" x1="115.97116" y1="91.38806" x2="71.52293" y2="55.73102"/>
      </g>
      <g class="cls-14">
        <polygon class="cls-11" points="43.32515 87.23825 85 127.25052 126.3681 87.23825 85.03937 54.91923 43.32515 87.23825"/>
        <line class="cls-7" x1="55.83324" y1="99.24733" x2="97.9992" y2="65.05381"/>
        <line class="cls-7" x1="69.76721" y1="112.62542" x2="111.84411" y2="75.88051"/>
        <line class="cls-7" x1="99.92886" y1="112.81095" x2="58.34393" y2="75.60212"/>
        <line class="cls-7" x1="113.79432" y1="99.39993" x2="72.28637" y2="64.7999"/>
      </g>
    </g>
  </g>
  <g id="_图层_9" data-name="图层 9">
    <g class="cls-12">
      <g>
        <path class="cls-1" d="m120.78,149.80874c-2.15,1.26-3.17.42-3.17-.81,0-.81.81-1.19.94-1.14.13.06,3.71-.25,3.88-.59s-.16-3.29.68-3.31,1.76.86,1.84,1.24c.08.39.18,1.94.18,1.94,1.07-.36,3.32-.35,3.78-.2.42.14.66.68.46,1.28-1.1,1.02-4.25.44-4.19,1.01.07.57-.22,10.66-.3,11.24s-.19.67-.59.86c-.4.18-.76-.18-.78.22-.02.39-.43.7-.43.7,0,0-.46-.98-.56-1.53s-.14-11.14-.14-11.14c0,0-.53-.26-1.6.23Z"/>
        <path class="cls-1" d="m122.4,143.29874c-.97.42-2.55,1.12-3.19-1.21-.29-1.05.22-1.57,4.06-1.82s5.17-.34,5.22,1c0,0-.22.42-.22.56s-.7,1.49-1.3,1.49c-.59,0-1.53.33-2.69-.36,0,0-.92-.07-1.88.34Z"/>
        <path class="cls-1" d="m114.83,146.78874l-.72.25-.02.7.74-.95Zm-.68-3.57c-.06.28-.23,1.79-.18,1.81,0,0,.67.07.74.13.06.07.09.51.11.57s.25.02.25.02c0,0,.2-2.25.11-2.36s-1.01-.26-1.03-.17Zm-4.4,7.06c-.09-.11-1.1-.9-1.42-3.7-.33-2.8-.2-3.3.93-3.7,0,0,.45-.34.7-.51s.16.83.12.96c-.04.14.32.58.3.75-.03.16-.27,1.03-.13,1.71.15.68.71,2.79.71,2.79,0,0,.47.1.57.1.11.01.47-.45.39-.55s-.18-.65-.18-1.35c0,0-.91-.12-1.29-1.02-.25-.6.3-.07.51-.1,0,0,.62-.19.7-.31s.12-1.77.12-1.77c0,0-.49-.56-.49-.74,0-.17.58-.5.58-.63s-.08-2.25-.14-2.31c-.05-.05-2.53-.33-2.53-2.25,0-.69.49-1.4.89-1.4.41,0,1.47.13,1.47.13,0,0,.02-1.07-.03-1.53-.04-.45-.17-1.18-.4-1.37,0,0-.02-.72.17-1.02.19-.29.58-.48.97-.44.78.09,1.39,1,1.62,1.64.19.55.19,2.47.19,2.47,0,0-.01.08.43-.18s.91-.28,1.12-.07c.22.21,1.23,1.11,1.23,1.77,0,.65-1.03,1.57-2.64,1.55l-.03,2.61s1.86-.31,2.25-.36c.4-.05,1.18.54,1.47,1.9s-1.42,5.73-1.74,5.89c-.33.15-1.56.77-1.85.9l-.18,1.76s1.99-1.16,2.21-1.12.89,1.11.42,1.84c-.47.72-2.52,1.19-2.52,1.19,0,0-.16,4.33-.28,4.52s-.43.5-.49.59-.21.43-.21.43c-.07.07-.27.38-.6.29,0,0-.15-.31-.31-.58-.17-.26-.67-.62-.72-1.01-.06-.39.12-3.33.12-3.33,0,0-1.71.8-2.46.77-.75-.04-2-1.38-1.13-2.74,0,0,.28-.14,1.03.16,0,0,1.98-.03,2.42-.27l-.02-2.53s-.3-.26-.33-.27c-.04,0-.43.5-.49.5-.07,0-.94.05-1.03-.06Z"/>
        <path class="cls-1" d="m87.87,150.85874c-1.1-1.07-1.55-2.17-1.55-3.27.87.55,1.62.98,2.09,1.08.1-.84.04-1.59-.12-2.28-.77.65-1.67.7-2.83-.39,1.81-2.11,3.1-4.62,2.95-8.2.28-.23.52-.48.71-.77.91.56,1.63,1.22,1.89,2.17-.18,1.75-.73,3.24-1.53,4.55,3.38-.76,5.19-1.59,5.38-.95.71,2.46-2.15,2.12-5.31,2.97,1.7,1.29,1.24,3.07.69,4.87,1.83,2.35,4.23,3.86,7.1,4.7-1.53,3.67-4.39,2.24-8.12-2.55-1.78,1.84-3.59,3.01-5.53,2.02,1.91-.54,3.31-1.85,4.18-3.95Z"/>
        <path class="cls-1" d="m81.48,143.92874c-.2-.45-1.4.37-1.4.37.36.07,1.14,1.19,1.17,1.33,0,0,.44-1.26.23-1.7Zm-1.4,4.4c.41.87.39,1.85.18,2.86l.89-.05c.16-.92.16-2.04.09-3.25l-1.16.44Zm-.91-3.08s-.22.52-.41,1.18-.06.9-.06.9c0,0,1-.03,1.14-.36s-.67-1.72-.67-1.72Zm-1.17,3.96c-.11.32-1.04,2.82-1.15,3.03.15-.03,1.28-.34,1.41-.37.23-.06.78-3.12.69-3.14-.36.05-.68.18-.95.48Zm-3.69.81c-1.2.41-2.54-.35-2.54-1.09,0-1.48,4.68-.74,5.02-1.56.31-.27.59-3.72.72-4.13.37-.44.54,0,1.44-.21,1.97-.71,3.23-1.06,4.24-.24s.72,3.44.81,3.6.62.61.61,1.18c0,.57-.71.37-.93.75-.21.39-.4,2.23-.4,2.23,0,0,1.03-.01,1.18.07.15.09.85,1.01.52,1.5-.33.5-1.74.22-2.02.49-.14.13-.57,3.12-.74,3.96-.16.84-1.22,1.96-2.08,1.95-.85-.01-2.8-2.44-2.8-2.44,0,0,1.49.12,2.25-.21s.69-1.3.73-1.53c.03-.23.36-1.74.36-1.74,0,0-1.23.27-2.03.75s-2.16,1.01-2.62,1.05c-.46.03-1.47-.88-1.17-1.12s1.32-3.99,1.32-3.99c0,0-.68.31-1.87.73Z"/>
        <path class="cls-1" d="m77.03,141.47874c-.24-.31-1.64-1.45-1.64-1.45,0,0,.83-1.17,1.23-1.89l.02-.05s.34-1.78.85-2.34c1.65.4,1.47,2.25,1.53,2.27.05.02,1.54-.33,2.68-.33s1.73.98.48,2.23c-1.24,1.25-2.65.43-2.84.44-.19.02-2.07,1.42-2.31,1.12Z"/>
        <path class="cls-1" d="m56.95,160.31874c-1.68.13-2.82-1.12-3.61-3.25.87.51,1.58.78,2.06.7,1.21-1.98,1.74-5.06,1.57-9.27-.66-.21-1.33-.17-2.02.2-1.19,5.09-2.41,8.23-3.67,8.2-.06-.61-.28-1.28-.66-2.01.73-1.63,1.21-3.3,1.3-5.01-.95.12-1.5-.31-1.62-1.33.06-.55,1.12-1,2.13-1.3.26-1.48.4-3.17.46-4.99.74.09,1.39.69,2.04,1.31.01,1.42.01,2.48,0,3.2,2.41-.17,4.29-.04,4.84.85-.29,6.81-1.21,11.12-2.82,12.7Z"/>
        <path class="cls-1" d="m48.46,144.87874c-.4.04-.8.08-1.23.13-.05.46-.06,1.09-.06,1.76.63-.42,1.06-1.06,1.29-1.89Zm-1.83-4.56c-.04-.43-.04-.86,0-1.29-.27.1-.59.15-.96.19.05.47.04.94,0,1.42.31-.09.62-.19.96-.32Zm-1.17,17.14l-.89.98,1.06-.49-.17-.49Zm-1.99-11.61c.07.61.17,1.34.29,2.32.47.02.92-.1,1.34-.44.03-.65-.01-1.36-.09-2.12-.53.19-1.04.23-1.54.24Zm.31-2.08c-.2.25-.25.57-.25.9.53-.05,1.05-.13,1.57-.23-.05-.3-.07-.59-.07-.87-.41.01-.83.1-1.25.2Zm-.81,6.6c-1.3-.83-1.56-2.02-1.58-3.28-.12-1.47.06-2.59.65-3.24l1.86-1.48c-.49-.78-.72-1.51-.69-2.19-1.23-.24-1.98-.79-2.08-1.77.14-.94.8-1.4,1.85-1.52.02-.78-.03-1.57-.24-2.43.12-.24.32-.44.65-.56.65.33,1.29.58,1.94.78-.13.59-.11,1.24.08,1.96.44.2.89.24,1.36.12.1-.82.14-1.69.13-2.59.3-.3.65-.45,1.04-.37.51.31.96,1.07,1.34,2.3.19.06.41.12.73.21.31.49.48,1.01.54,1.56-.57.46-1.09.75-1.57.83-.05,2.56-.76,3.72-1.86,4.07-.03.34-.02.75.01,1.22.62-.21,1.22-.37,1.81-.47.46.21.9.49,1.31.73.34.56.33,1.26.23,2-1.01,1.31-2.01,2.35-3,2.83-.24.39-.24.93-.18,1.51.29.04.56.07.8.11.45.44.74.9.96,1.37-.73.63-1.43,1.24-1.65,1.58-.08.13-.1.24.05.3.45.08.98.26,1.04.67.05.41-.57,1.52-1.18,1.9-.05.13-.04.25.07.37.37.1.63.19.83.28.52.62.53.96.37,1.19-1.87,1.29-5.79,2.88-6.15,1.72-.01-.48.14-1.06.41-1.7.64-.23,1.29-.7,1.93-1.27-.78-.2-1.36-.56-1.54-1.24.06-.73.49-1.1,1.21-1.42-.88-.36-1.56-.8-1.8-1.4-.16-1.08.37-1.17,2.52-1.93.06-.4-.13-.63-.28-.97-.6.21-1.25.28-1.92.22Z"/>
      </g>
    </g>
  </g>
</svg>